# xmcd
#
# Track frame offsets: 
#        12527
#        27265
#        42200
#        54712
#        55235
#        76172
#        82195
#        101950
#        137520
#        155292
#        170552
#        194060
#        212582
#        238745
#
# Disc length: 3362 seconds
#
# Revision: 5
# Processed by: cddbd v1.5.2PL0 Copyright (c) Steve Scherf et al.
# Submitted via: ExactAudioCopy v1.0b3
#
DISCID=ce0c7b0e
DTITLE=Lamb - Fear of Fours
DYEAR=1999
DGENRE=Drum and Bass
TTITLE0=Soft Mistake
TTITLE1=Little Things
TTITLE2=B Line
TTITLE3=[untitled]
TTITLE4=All In Your Hands
TTITLE5=Less Than Two
TTITLE6=Bonfire
TTITLE7=Ear Parcel
TTITLE8=Softly
TTITLE9=Here
TTITLE10=Fly
TTITLE11=Alien
TTITLE12=Five
TTITLE13=Lullaby
EXTD=
EXTT0=
EXTT1=
EXTT2=
EXTT3=
EXTT4=
EXTT5=
EXTT6=
EXTT7=
EXTT8=
EXTT9=
EXTT10=
EXTT11=
EXTT12=
EXTT13=
PLAYORDER=
